P3
80
60
255
0 0 0
0 0 0
0 0 0
0 0 0
0 0 0
0 0 0
0 0 0
0 0 0
0 0 0
0 0 0
0 0 0
0 0 0
0 0 0
0 0 0
0 0 0
0 0 0
0 0 0
0 0 0
0 0 0
0 0 0
0 0 0
0 0 0
0 0 0
0 0 0
0 0 0
0 0 0
0 0 0
0 0 0
0 0 0
0 0 0
0 0 0
0 0 0
0 0 0
0 0 0
0 0 0
0 0 0
0 0 0
0 0 0
0 0 0
0 0 0
0 0 0
0 0 0
0 0 0
0 0 0
0 0 0
0 0 0
0 0 0
0 0 0
0 0 0
0 0 0
0 0 0
0 0 0
0 0 0
0 0 0
0 0 0
0 0 0
0 0 0
0 0 0
0 0 0
0 0 0
0 0 0
0 0 0
0 0 0
0 0 0
0 0 0
0 0 0
0 0 0
0 0 0
0 0 0
0 0 0
0 0 0
0 0 0
0 0 0
0 0 0
0 0 0
0 0 0
0 0 0
0 0 0
0 0 0
0 0 0
0 0 0
0 0 0
0 0 0
0 0 0
0 0 0
0 0 0
0 0 0
0 0 0
0 0 0
0 0 0
0 0 0
0 0 0
0 0 0
0 0 0
0 0 0
0 0 0
0 0 0
0 0 0
0 0 0
0 0 0
0 0 0
0 0 0
0 0 0
0 0 0
0 0 0
0 0 0
0 0 0
0 0 0
0 0 0
0 0 0
0 0 0
0 0 0
0 0 0
0 0 0
0 0 0
0 0 0
0 0 0
0 0 0
0 0 0
0 0 0
0 0 0
0 0 0
0 0 0
0 0 0
0 0 0
0 0 0
0 0 0
0 0 0
0 0 0
0 0 0
0 0 0
0 0 0
0 0 0
0 0 0
0 0 0
0 0 0
0 0 0
0 0 0
0 0 0
0 0 0
0 0 0
0 0 0
0 0 0
0 0 0
0 0 0
0 0 0
0 0 0
0 0 0
0 0 0
0 0 0
0 0 0
0 0 0
0 0 0
0 0 0
0 0 0
0 0 0
0 0 0
0 0 0
0 0 0
0 0 0
0 0 0
0 0 0
0 0 0
0 0 0
0 0 0
0 0 0
0 0 0
0 0 0
0 0 0
0 0 0
0 0 0
0 0 0
0 0 0
0 0 0
0 0 0
0 0 0
0 0 0
0 0 0
0 0 0
0 0 0
0 0 0
0 0 0
0 0 0
0 0 0
0 0 0
0 0 0
0 0 0
0 0 0
0 0 0
0 0 0
0 0 0
0 0 0
0 0 0
0 0 0
0 0 0
0 0 0
0 0 0
0 0 0
0 0 0
0 0 0
0 0 0
0 0 0
0 0 0
0 0 0
0 0 0
0 0 0
0 0 0
0 0 0
0 0 0
0 0 0
0 0 0
0 0 0
0 0 0
0 0 0
0 0 0
0 0 0
0 0 0
0 0 0
0 0 0
0 0 0
0 0 0
0 0 0
0 0 0
0 0 0
0 0 0
0 0 0
0 0 0
0 0 0
0 0 0
0 0 0
0 0 0
0 0 0
0 0 0
0 0 0
0 0 0
0 0 0
0 0 0
0 0 0
0 0 0
0 0 0
0 0 0
0 0 0
0 0 0
0 0 0
0 0 0
0 0 0
0 0 0
0 0 0
0 0 0
0 0 0
0 0 0
0 0 0
0 0 0
0 0 0
0 0 0
0 0 0
0 0 0
0 0 0
0 0 0
0 0 0
0 0 0
0 0 0
0 0 0
0 0 0
0 0 0
0 0 0
0 0 0
0 0 0
0 0 0
0 0 0
0 0 0
0 0 0
0 0 0
0 0 0
0 0 0
0 0 0
0 0 0
0 0 0
0 0 0
0 0 0
0 0 0
0 0 0
0 0 0
0 0 0
0 0 0
0 0 0
0 0 0
0 0 0
0 0 0
0 0 0
0 0 0
0 0 0
0 0 0
0 0 0
0 0 0
0 0 0
0 0 0
0 0 0
0 0 0
0 0 0
0 0 0
0 0 0
0 0 0
0 0 0
0 0 0
0 0 0
0 0 0
0 0 0
0 0 0
0 0 0
0 0 0
0 0 0
0 0 0
0 0 0
0 0 0
0 0 0
0 0 0
0 0 0
0 0 0
0 0 0
0 0 0
0 0 0
0 0 0
0 0 0
0 0 0
0 0 0
0 0 0
0 0 0
0 0 0
0 0 0
0 0 0
0 0 0
0 0 0
0 0 0
0 0 0
0 0 0
0 0 0
0 0 0
0 0 0
0 0 0
0 0 0
0 0 0
0 0 0
0 0 0
0 0 0
0 0 0
0 0 0
0 0 0
0 0 0
0 0 0
0 0 0
0 0 0
0 0 0
0 0 0
0 0 0
0 0 0
0 0 0
0 0 0
0 0 0
0 0 0
0 0 0
0 0 0
0 0 0
0 0 0
0 0 0
0 0 0
0 0 0
0 0 0
0 0 0
0 0 0
0 0 0
0 0 0
0 0 0
0 0 0
0 0 0
0 0 0
0 0 0
0 0 0
0 0 0
0 0 0
0 0 0
0 0 0
0 0 0
0 0 0
0 0 0
0 0 0
0 0 0
0 0 0
0 0 0
0 0 0
0 0 0
0 0 0
0 0 0
0 0 0
0 0 0
0 0 0
0 0 0
0 0 0
0 0 0
0 0 0
0 0 0
0 0 0
0 0 0
0 0 0
0 0 0
0 0 0
0 0 0
0 0 0
0 0 0
0 0 0
0 0 0
0 0 0
0 0 0
0 0 0
0 0 0
0 0 0
0 0 0
0 0 0
0 0 0
0 0 0
0 0 0
0 0 0
0 0 0
0 0 0
0 0 0
0 0 0
0 0 0
0 0 0
0 0 0
0 0 0
0 0 0
0 0 0
0 0 0
0 0 0
0 0 0
0 0 0
0 0 0
0 0 0
0 0 0
0 0 0
0 0 0
0 0 0
0 0 0
0 0 0
0 0 0
0 0 0
0 0 0
0 0 0
0 0 0
0 0 0
0 0 0
0 0 0
0 0 0
0 0 0
0 0 0
0 0 0
0 0 0
0 0 0
0 0 0
0 0 0
0 0 0
0 0 0
0 0 0
0 0 0
0 0 0
0 0 0
0 0 0
0 0 0
0 0 0
0 0 0
0 0 0
0 0 0
0 0 0
0 0 0
0 0 0
0 0 0
0 0 0
0 0 0
0 0 0
0 0 0
0 0 0
0 0 0
0 0 0
0 0 0
0 0 0
0 0 0
0 0 0
0 0 0
0 0 0
0 0 0
0 0 0
0 0 0
0 0 0
0 0 0
0 0 0
0 0 0
0 0 0
0 0 0
0 0 0
0 0 0
0 0 0
0 0 0
0 0 0
0 0 0
0 0 0
0 0 0
0 0 0
0 0 0
0 0 0
0 0 0
0 0 0
0 0 0
0 0 0
0 0 0
0 0 0
0 0 0
0 0 0
0 0 0
0 0 0
0 0 0
0 0 0
0 0 0
0 0 0
0 0 0
0 0 0
0 0 0
0 0 0
0 0 0
0 0 0
0 0 0
0 0 0
0 0 0
0 0 0
0 0 0
0 0 0
0 0 0
0 0 0
0 0 0
0 0 0
0 0 0
0 0 0
0 0 0
0 0 0
0 0 0
0 0 0
0 0 0
0 0 0
0 0 0
0 0 0
0 0 0
0 0 0
0 0 0
0 0 0
0 0 0
0 0 0
0 0 0
0 0 0
0 0 0
0 0 0
0 0 0
0 0 0
0 0 0
0 0 0
0 0 0
0 0 0
0 0 0
0 0 0
0 0 0
0 0 0
0 0 0
0 0 0
0 0 0
0 0 0
0 0 0
0 0 0
0 0 0
0 0 0
0 0 0
0 0 0
0 0 0
0 0 0
0 0 0
0 0 0
0 0 0
0 0 0
0 0 0
0 0 0
0 0 0
0 0 0
0 0 0
0 0 0
0 0 0
0 0 0
0 0 0
0 0 0
0 0 0
0 0 0
38 0 0
41 0 0
44 0 0
47 0 0
48 0 0
49 0 0
0 0 0
0 0 0
0 0 0
0 0 0
0 0 0
0 0 0
0 0 0
0 0 0
0 0 0
0 0 0
0 0 0
0 0 0
0 0 0
0 0 0
0 0 0
0 0 0
0 0 0
0 0 0
0 0 0
0 0 0
0 0 0
0 0 0
0 0 0
0 0 0
0 0 0
0 0 0
0 0 0
0 0 0
0 0 0
0 0 0
0 0 0
0 0 0
0 0 0
0 0 0
0 0 0
0 0 0
0 0 0
0 0 0
0 0 0
0 0 0
0 0 0
0 0 0
0 0 0
0 0 0
0 0 0
0 0 0
0 0 0
0 0 0
0 0 0
0 0 0
0 0 0
0 0 0
0 0 0
0 0 0
0 0 0
0 0 0
0 0 0
0 0 0
0 0 0
0 0 0
0 0 0
0 0 0
0 0 0
0 0 0
0 0 0
0 0 0
0 0 0
0 0 0
0 0 0
0 0 0
38 0 0
38 0 0
40 0 0
43 0 0
47 0 0
50 0 0
52 0 0
55 0 0
57 0 0
59 0 0
60 0 0
61 0 0
62 0 0
61 0 0
0 0 0
0 0 0
0 0 0
0 0 0
0 0 0
0 0 0
0 0 0
0 0 0
0 0 0
0 0 0
0 0 0
0 0 0
0 0 0
0 0 0
0 0 0
0 0 0
0 0 0
0 0 0
0 0 0
0 0 0
0 0 0
0 0 0
0 0 0
0 0 0
0 0 0
0 0 0
0 0 0
0 0 0
0 0 0
0 0 0
0 0 0
0 0 0
0 0 0
0 0 0
0 0 0
0 0 0
0 0 0
0 0 0
0 0 0
0 0 0
0 0 0
0 0 0
0 0 0
0 0 0
0 0 0
0 0 0
0 0 0
0 0 0
0 0 0
0 0 0
0 0 0
0 0 0
0 0 0
0 0 0
0 0 0
0 0 0
0 0 0
0 0 0
0 0 0
0 0 0
0 0 0
0 0 0
0 0 0
0 0 0
38 0 0
38 0 0
38 0 0
42 0 0
45 0 0
49 0 0
52 0 0
55 0 0
57 0 0
60 0 0
62 0 0
64 0 0
66 0 0
67 0 0
69 0 0
69 0 0
70 0 0
69 0 0
0 0 0
0 0 0
0 0 0
0 0 0
0 0 0
0 0 0
0 0 0
0 0 0
0 0 0
0 0 0
0 0 0
0 0 0
0 0 0
0 0 0
0 0 0
0 0 0
0 0 0
0 0 0
0 0 0
0 0 0
0 0 0
0 0 0
0 0 0
0 0 0
0 0 0
0 0 0
0 0 0
0 0 0
0 0 0
0 0 0
0 0 0
0 0 0
0 0 0
0 0 0
0 0 0
0 0 0
0 0 0
0 0 0
0 0 0
0 0 0
0 0 0
0 0 0
0 0 0
0 0 0
0 0 0
0 0 0
0 0 0
0 0 0
0 0 0
0 0 0
0 0 0
0 0 0
0 0 0
0 0 0
0 0 0
0 0 0
0 0 0
0 0 0
0 0 0
0 0 0
38 0 0
38 0 0
38 0 0
39 0 0
43 0 0
46 0 0
49 0 0
53 0 0
55 0 0
58 0 0
61 0 0
63 0 0
65 0 0
67 0 0
69 0 0
71 0 0
73 0 0
74 0 0
75 0 0
76 0 0
76 0 0
74 0 0
0 0 0
0 0 0
0 0 0
0 0 0
0 0 0
0 0 0
0 0 0
0 0 0
0 0 0
0 0 0
0 0 0
0 0 0
0 0 0
0 0 0
0 0 0
0 0 0
0 0 0
0 0 0
0 0 0
0 0 0
0 0 0
0 0 0
0 0 0
0 0 0
0 0 0
0 0 0
0 0 0
0 0 0
0 0 0
0 0 0
0 0 0
0 0 0
0 0 0
0 0 0
0 0 0
0 0 0
0 0 0
0 0 0
0 0 0
0 0 0
0 0 0
0 0 0
0 0 0
0 0 0
0 0 0
0 0 0
0 0 0
0 0 0
0 0 0
0 0 0
0 0 0
0 0 0
0 0 0
0 0 0
0 0 0
0 0 0
38 0 0
38 0 0
38 0 0
38 0 0
39 0 0
43 0 0
46 0 0
50 0 0
53 0 0
56 0 0
58 0 0
61 0 0
64 0 0
66 0 0
68 0 0
70 0 0
72 0 0
74 0 0
76 0 0
78 0 0
79 0 0
80 0 0
81 0 0
81 0 0
80 0 0
76 0 0
0 0 0
0 0 0
0 0 0
0 0 0
0 0 0
0 0 0
0 0 0
0 0 0
0 0 0
0 0 0
0 0 0
0 0 0
0 0 0
0 0 0
0 0 0
0 0 0
0 0 0
0 0 0
0 0 0
0 0 0
0 0 0
0 0 0
0 0 0
0 0 0
0 0 0
0 0 0
0 0 0
0 0 0
0 0 0
0 0 0
0 0 0
0 0 0
0 0 0
0 0 0
0 0 0
0 0 0
0 0 0
0 0 0
0 0 0
0 0 0
0 0 0
0 0 0
0 0 0
0 0 0
0 0 0
0 0 0
0 0 0
0 0 0
0 0 0
0 0 0
0 0 0
0 0 0
0 0 0
38 0 0
38 0 0
38 0 0
38 0 0
38 0 0
42 0 0
46 0 0
49 0 0
52 0 0
55 0 0
58 0 0
61 0 0
63 0 0
66 0 0
68 0 0
71 0 0
73 0 0
75 0 0
77 0 0
79 0 0
80 0 0
82 0 0
83 0 0
84 0 0
85 0 0
85 0 0
85 0 0
82 0 0
0 0 0
0 0 0
0 0 0
0 0 0
0 0 0
0 0 0
0 0 0
0 0 0
0 0 0
0 0 0
0 0 0
0 0 0
0 0 0
0 0 0
0 0 0
0 0 0
0 0 0
0 0 0
0 0 0
0 0 0
0 0 0
0 0 0
0 0 0
0 0 0
0 0 0
0 0 0
0 0 0
0 0 0
0 0 0
0 0 0
0 0 0
0 0 0
0 0 0
0 0 0
0 0 0
0 0 0
0 0 0
0 0 0
0 0 0
0 0 0
0 0 0
0 0 0
0 0 0
0 0 0
0 0 0
0 0 0
0 0 0
0 0 0
0 0 0
0 0 0
0 0 0
38 0 0
38 0 0
38 0 0
38 0 0
38 0 0
41 0 0
45 0 0
48 0 0
51 0 0
54 0 0
57 0 0
60 0 0
63 0 0
65 0 0
68 0 0
70 0 0
73 0 0
75 0 0
77 0 0
79 0 0
81 0 0
83 0 0
84 0 0
86 0 0
87 0 0
88 0 0
89 0 0
89 0 0
88 0 0
86 0 0
0 0 0
0 0 0
0 0 0
0 0 0
0 0 0
0 0 0
0 0 0
0 0 0
0 0 0
0 0 0
0 0 0
0 0 0
0 0 0
0 0 0
0 0 0
0 0 0
0 0 0
0 0 0
0 0 0
0 0 0
0 0 0
0 0 0
0 0 0
0 0 0
0 0 0
0 0 0
0 0 0
0 0 0
0 0 0
0 0 0
0 0 0
0 0 0
0 0 0
0 0 0
0 0 0
0 0 0
0 0 0
0 0 0
0 0 0
0 0 0
0 0 0
0 0 0
0 0 0
0 0 0
0 0 0
0 0 0
0 0 0
0 0 0
0 0 0
38 0 0
38 0 0
38 0 0
38 0 0
38 0 0
40 0 0
43 0 0
47 0 0
50 0 0
53 0 0
56 0 0
59 0 0
62 0 0
65 0 0
67 0 0
70 0 0
72 0 0
75 0 0
77 0 0
79 0 0
81 0 0
83 0 0
85 0 0
87 0 0
88 0 0
90 0 0
91 0 0
92 0 0
92 0 0
93 0 0
92 0 0
89 0 0
0 0 0
0 0 0
0 0 0
0 0 0
0 0 0
0 0 0
0 0 0
0 0 0
0 0 0
0 0 0
0 0 0
0 0 0
0 0 0
0 0 0
0 0 0
0 0 0
0 0 0
0 0 0
0 0 0
0 0 0
0 0 0
0 0 0
0 0 0
0 0 0
0 0 0
0 0 0
0 0 0
0 0 0
0 0 0
0 0 0
0 0 0
0 0 0
0 0 0
0 0 0
0 0 0
0 0 0
0 0 0
0 0 0
0 0 0
0 0 0
0 0 0
0 0 0
0 0 0
0 0 0
0 0 0
0 0 0
0 0 0
38 0 0
38 0 0
38 0 0
38 0 0
38 0 0
38 0 0
42 0 0
45 0 0
49 0 0
52 0 0
55 0 0
58 0 0
61 0 0
64 0 0
66 0 0
69 0 0
71 0 0
74 0 0
76 0 0
78 0 0
81 0 0
83 0 0
85 0 0
87 0 0
89 0 0
90 0 0
92 0 0
93 0 0
94 0 0
95 0 0
96 0 0
95 0 0
94 0 0
90 0 0
0 0 0
0 0 0
0 0 0
0 0 0
0 0 0
0 0 0
0 0 0
0 0 0
0 0 0
0 0 0
0 0 0
0 0 0
0 0 0
0 0 0
0 0 0
0 0 0
0 0 0
0 0 0
0 0 0
0 0 0
0 0 0
0 0 0
0 0 0
0 0 0
0 0 0
0 0 0
0 0 0
0 0 0
0 0 0
0 0 0
0 0 0
0 0 0
0 0 0
0 0 0
0 0 0
0 0 0
0 0 0
0 0 0
0 0 0
0 0 0
0 0 0
0 0 0
0 0 0
0 0 0
0 0 0
38 0 0
38 0 0
38 0 0
38 0 0
38 0 0
38 0 0
40 0 0
44 0 0
47 0 0
50 0 0
54 0 0
57 0 0
60 0 0
62 0 0
65 0 0
68 0 0
70 0 0
73 0 0
75 0 0
78 0 0
80 0 0
82 0 0
85 0 0
87 0 0
89 0 0
91 0 0
93 1 1
94 0 0
96 0 0
97 0 0
97 0 0
98 0 0
98 0 0
98 0 0
96 0 0
89 0 0
0 0 0
0 0 0
0 0 0
0 0 0
0 0 0
0 0 0
0 0 0
0 0 0
0 0 0
0 0 0
0 0 0
0 0 0
0 0 0
0 0 0
0 0 0
0 0 0
0 0 0
0 0 0
0 0 0
0 0 0
0 0 0
0 0 0
0 0 0
0 0 0
0 0 0
0 0 0
0 0 0
0 0 0
0 0 0
0 0 0
0 0 0
0 0 0
0 0 0
0 0 0
0 0 0
0 0 0
0 0 0
0 0 0
0 0 0
0 0 0
0 0 0
0 0 0
0 0 0
0 0 0
38 0 0
38 0 0
38 0 0
38 0 0
38 0 0
38 0 0
42 0 0
45 0 0
49 0 0
52 0 0
55 0 0
58 0 0
61 0 0
64 0 0
66 0 0
69 0 0
71 0 0
74 0 0
76 0 0
79 0 0
81 0 0
84 0 0
86 1 1
89 1 1
91 2 2
94 2 2
96 2 2
97 2 2
98 2 2
99 1 1
100 0 0
100 0 0
101 0 0
101 0 0
100 0 0
98 0 0
0 0 0
0 0 0
0 0 0
0 0 0
0 0 0
0 0 0
0 0 0
0 0 0
0 0 0
0 0 0
0 0 0
0 0 0
0 0 0
0 0 0
0 0 0
0 0 0
0 0 0
0 0 0
0 0 0
0 0 0
0 0 0
0 0 0
0 0 0
0 0 0
0 0 0
0 0 0
0 0 0
0 0 0
0 0 0
0 0 0
0 0 0
0 0 0
0 0 0
0 0 0
0 0 0
0 0 0
0 0 0
0 0 0
0 0 0
0 0 0
0 0 0
0 0 0
0 0 0
38 0 0
38 0 0
38 0 0
38 0 0
38 0 0
38 0 0
40 0 0
43 0 0
47 0 0
50 0 0
53 0 0
56 0 0
59 0 0
62 0 0
65 0 0
67 0 0
70 0 0
73 0 0
75 0 0
78 0 0
80 0 0
83 0 0
86 1 1
89 2 2
92 3 3
95 3 3
97 4 4
99 4 4
101 4 4
102 4 4
103 3 3
103 2 2
103 1 1
103 0 0
103 0 0
103 0 0
102 0 0
97 0 0
0 0 0
0 0 0
0 0 0
0 0 0
0 0 0
0 0 0
0 0 0
0 0 0
0 0 0
0 0 0
0 0 0
0 0 0
0 0 0
0 0 0
0 0 0
0 0 0
0 0 0
0 0 0
0 0 0
0 0 0
0 0 0
0 0 0
0 0 0
0 0 0
0 0 0
0 0 0
0 0 0
0 0 0
0 0 0
0 0 0
0 0 0
0 0 0
0 0 0
0 0 0
0 0 0
0 0 0
0 0 0
0 0 0
0 0 0
0 0 0
0 0 0
0 0 0
38 0 0
38 0 0
38 0 0
38 0 0
38 0 0
38 0 0
41 0 0
45 0 0
48 0 0
51 0 0
54 0 0
57 0 0
60 0 0
63 0 0
66 0 0
68 0 0
71 0 0
74 0 0
76 0 0
79 0 0
82 0 0
85 1 1
88 2 2
91 3 3
95 5 5
98 6 6
102 7 7
104 8 8
106 8 8
107 8 8
107 6 6
107 5 5
106 3 3
106 1 1
105 0 0
105 0 0
104 0 0
102 0 0
0 0 0
0 0 0
0 0 0
0 0 0
0 0 0
0 0 0
0 0 0
0 0 0
0 0 0
0 0 0
0 0 0
0 0 0
0 0 0
0 0 0
0 0 0
0 0 0
0 0 0
0 0 0
0 0 0
0 0 0
0 0 0
0 0 0
0 0 0
0 0 0
0 0 0
0 0 0
0 0 0
0 0 0
0 0 0
0 0 0
0 0 0
0 0 0
0 0 0
0 0 0
0 0 0
0 0 0
0 0 0
0 0 0
0 0 0
0 0 0
0 0 0
38 0 0
38 0 0
38 0 0
38 0 0
38 0 0
38 0 0
38 0 0
42 0 0
46 0 0
49 0 0
52 0 0
55 0 0
58 0 0
61 0 0
64 0 0
67 0 0
69 0 0
72 0 0
74 0 0
77 0 0
80 0 0
83 1 1
87 2 2
90 4 4
95 6 6
99 8 8
103 10 10
107 12 12
110 13 13
112 14 14
113 13 13
113 11 11
113 9 9
111 6 6
109 3 3
108 1 1
107 0 0
107 0 0
105 0 0
101 0 0
0 0 0
0 0 0
0 0 0
0 0 0
0 0 0
0 0 0
0 0 0
0 0 0
0 0 0
0 0 0
0 0 0
0 0 0
0 0 0
0 0 0
0 0 0
0 0 0
0 0 0
0 0 0
0 0 0
0 0 0
0 0 0
0 0 0
0 0 0
0 0 0
0 0 0
0 0 0
0 0 0
0 0 0
0 0 0
0 0 0
0 0 0
0 0 0
0 0 0
0 0 0
0 0 0
0 0 0
0 0 0
0 0 0
0 0 0
0 0 0
38 0 0
38 0 0
38 0 0
38 0 0
38 0 0
38 0 0
39 0 0
43 0 0
47 0 0
50 0 0
53 0 0
56 0 0
59 0 0
62 0 0
65 0 0
67 0 0
70 0 0
73 0 0
75 0 0
78 0 0
81 1 1
85 2 2
89 4 4
93 6 6
98 9 9
103 12 12
109 15 15
113 17 17
117 19 19
120 20 20
121 20 20
121 18 18
119 15 15
117 11 11
114 7 7
111 3 3
109 1 1
108 0 0
107 0 0
105 0 0
0 0 0
0 0 0
0 0 0
0 0 0
0 0 0
0 0 0
0 0 0
0 0 0
0 0 0
0 0 0
0 0 0
0 0 0
0 0 0
0 0 0
0 0 0
0 0 0
0 0 0
0 0 0
0 0 0
0 0 0
0 0 0
0 0 0
0 0 0
0 0 0
0 0 0
0 0 0
0 0 0
0 0 0
0 0 0
0 0 0
0 0 0
0 0 0
0 0 0
0 0 0
0 0 0
0 0 0
0 0 0
0 0 0
0 0 0
38 0 0
38 0 0
38 0 0
38 0 0
38 0 0
38 0 0
38 0 0
40 0 0
44 0 0
47 0 0
51 0 0
54 0 0
57 0 0
60 0 0
63 0 0
65 0 0
68 0 0
71 0 0
73 0 0
76 0 0
79 0 0
83 1 1
86 3 3
91 5 5
96 8 8
102 12 12
108 16 16
115 20 20
120 24 24
125 27 27
128 28 28
130 28 28
129 25 25
127 22 22
123 17 17
119 11 11
115 6 6
112 2 2
110 0 0
109 0 0
107 0 0
100 0 0
0 0 0
0 0 0
0 0 0
0 0 0
0 0 0
0 0 0
0 0 0
0 0 0
0 0 0
0 0 0
0 0 0
0 0 0
0 0 0
0 0 0
0 0 0
0 0 0
0 0 0
0 0 0
0 0 0
0 0 0
0 0 0
0 0 0
0 0 0
0 0 0
0 0 0
0 0 0
0 0 0
0 0 0
0 0 0
0 0 0
0 0 0
0 0 0
0 0 0
0 0 0
0 0 0
0 0 0
0 0 0
0 0 0
38 0 0
38 0 0
38 0 0
38 0 0
38 0 0
38 0 0
38 0 0
41 0 0
45 0 0
48 0 0
51 0 0
54 0 0
57 0 0
60 0 0
63 0 0
66 0 0
69 0 0
71 0 0
74 0 0
77 0 0
80 1 1
84 2 2
88 4 4
94 7 7
100 11 11
107 16 16
114 21 21
121 26 26
128 31 31
133 34 34
137 36 36
139 36 36
139 34 34
136 30 30
131 23 23
125 16 16
120 10 10
115 4 4
112 1 1
111 0 0
109 0 0
105 0 0
0 0 0
0 0 0
0 0 0
0 0 0
0 38 0
0 38 0
0 39 0
0 48 0
0 58 0
0 66 0
0 0 0
0 0 0
0 0 0
0 0 0
0 0 0
0 0 0
0 0 0
0 0 0
0 0 0
0 0 0
0 0 0
0 0 0
0 0 0
0 0 0
0 0 0
0 0 0
0 0 0
0 0 0
0 0 0
0 0 0
0 0 0
0 0 0
0 0 0
0 0 0
0 0 0
0 0 0
0 0 0
0 0 0
38 0 0
38 0 0
38 0 0
38 0 0
38 0 0
38 0 0
38 0 0
42 0 0
45 0 0
49 0 0
52 0 0
55 0 0
58 0 0
61 0 0
64 0 0
66 0 0
69 0 0
72 0 0
75 0 0
78 0 0
81 1 1
85 3 3
90 6 6
96 9 9
103 14 14
111 20 20
119 26 26
128 32 32
135 38 38
142 42 42
147 45 45
149 45 45
148 43 43
145 38 38
139 31 31
132 22 22
125 14 14
119 7 7
114 2 2
112 0 0
111 0 0
108 0 0
0 0 0
0 0 0
0 38 0
0 38 0
0 38 0
0 38 0
0 41 0
0 51 0
0 60 0
0 69 0
0 78 0
0 86 0
0 0 0
0 0 0
0 0 0
0 0 0
0 0 0
0 0 0
0 0 0
0 0 0
0 0 0
0 0 0
0 0 0
0 0 0
0 0 0
0 0 0
0 0 0
0 0 0
0 0 0
0 0 0
0 0 0
0 0 0
0 0 0
0 0 0
0 0 0
0 0 0
0 0 0
0 0 0
38 0 0
38 0 0
38 0 0
38 0 0
38 0 0
38 0 0
39 0 0
42 0 0
46 0 0
49 0 0
52 0 0
55 0 0
58 0 0
61 0 0
64 0 0
67 0 0
70 0 0
72 0 0
75 0 0
78 0 0
82 2 2
86 4 4
92 7 7
98 11 11
106 17 17
115 23 23
124 30 30
134 38 38
143 45 45
150 50 50
155 54 54
158 54 54
157 52 52
154 46 46
147 38 38
139 29 29
130 19 19
122 10 10
117 4 4
114 0 0
112 0 0
110 0 0
0 0 0
0 38 0
0 38 0
0 38 0
0 38 0
0 38 0
0 43 0
0 52 0
0 62 0
2 73 2
4 84 4
3 92 3
0 96 0
0 0 0
0 0 0
0 0 0
0 0 0
0 0 0
0 0 0
0 0 0
0 0 0
0 0 0
0 0 0
0 0 0
0 0 0
0 0 0
0 0 0
0 0 0
0 0 0
0 0 0
0 0 0
0 0 0
0 0 0
0 0 0
0 0 0
0 0 0
0 0 0
38 0 0
38 0 0
38 0 0
38 0 0
38 0 0
38 0 0
38 0 0
39 0 0
43 0 0
46 0 0
49 0 0
53 0 0
56 0 0
59 0 0
62 0 0
64 0 0
67 0 0
70 0 0
73 0 0
75 0 0
79 1 1
83 2 2
87 5 5
93 8 8
100 13 13
109 19 19
119 27 27
129 35 35
139 43 43
149 51 51
157 57 57
163 61 61
166 62 62
166 60 60
162 54 54
154 45 45
145 34 34
135 23 23
126 13 13
119 5 5
115 1 1
113 0 0
111 0 0
0 38 0
0 38 0
0 38 0
0 38 0
0 38 0
0 38 0
0 44 0
0 53 0
1 64 1
5 77 5
14 94 14
17 106 17
8 106 8
0 105 0
0 0 0
0 0 0
0 0 0
0 0 0
0 0 0
0 0 0
0 0 0
0 0 0
0 0 0
0 0 0
0 0 0
0 0 0
0 0 0
0 0 0
0 0 0
0 0 0
0 0 0
0 0 0
0 0 0
0 0 0
0 0 0
0 0 0
0 0 0
38 0 0
38 0 0
38 0 0
38 0 0
38 0 0
38 0 0
38 0 0
39 0 0
43 0 0
46 0 0
50 0 0
53 0 0
56 0 0
59 0 0
62 0 0
65 0 0
67 0 0
70 0 0
73 0 0
76 0 0
79 1 1
83 3 3
88 5 5
95 9 9
102 14 14
111 21 21
122 29 29
133 38 38
144 47 47
154 56 56
163 63 63
170 67 67
173 69 69
173 66 66
168 60 60
160 51 51
150 39 39
139 27 27
129 16 16
121 7 7
116 2 2
114 0 0
112 0 0
0 38 0
0 38 0
0 38 0
0 38 0
0 38 0
0 38 0
0 45 0
0 54 0
2 65 2
10 83 10
26 107 26
38 128 38
27 126 27
3 110 3
0 0 0
0 0 0
0 0 0
0 0 0
0 0 0
0 0 0
0 0 0
0 0 0
0 0 0
0 0 0
0 0 0
0 0 0
0 0 0
0 0 0
0 0 0
0 0 0
0 0 0
0 0 0
0 0 0
0 0 0
0 0 0
0 0 0
0 0 0
38 0 0
38 0 0
38 0 0
38 0 0
38 0 0
38 0 0
38 0 0
40 0 0
43 0 0
47 0 0
50 0 0
53 0 0
56 0 0
59 0 0
62 0 0
65 0 0
68 0 0
70 0 0
73 0 0
76 0 0
79 1 1
84 3 3
89 6 6
95 10 10
103 16 16
113 23 23
124 31 31
135 41 41
147 50 50
158 59 59
168 67 67
174 72 72
178 73 73
177 71 71
173 65 65
165 55 55
154 43 43
142 30 30
131 18 18
122 8 8
117 2 2
114 0 0
112 0 0
0 38 0
0 38 0
0 38 0
0 38 0
0 38 0
0 38 0
0 45 0
0 55 0
3 67 3
15 88 15
38 120 38
58 149 58
51 150 51
14 121 14
0 0 0
0 0 0
0 0 0
0 0 0
0 0 0
0 0 0
0 0 0
0 0 0
0 0 0
0 0 0
0 0 0
0 0 0
0 0 0
0 0 0
0 0 0
0 0 0
0 0 0
0 0 0
0 0 0
0 0 0
0 0 0
0 0 0
0 0 0
38 0 0
38 0 0
38 0 0
38 0 0
38 0 0
38 0 0
38 0 0
40 0 0
43 0 0
47 0 0
50 0 0
53 0 0
56 0 0
59 0 0
62 0 0
65 0 0
68 0 0
70 0 0
73 0 0
76 0 0
80 1 1
84 3 3
89 6 6
96 10 10
104 16 16
114 23 23
125 32 32
137 42 42
149 52 52
160 61 61
170 69 69
177 74 74
180 76 76
180 73 73
175 67 67
167 57 57
156 45 45
144 31 31
132 19 19
123 9 9
117 2 2
114 0 0
113 0 0
0 38 0
0 38 0
0 38 0
0 38 0
0 38 0
0 38 0
0 45 0
0 55 0
3 68 3
18 91 18
45 127 45
71 162 71
66 165 66
23 131 23
0 0 0
0 0 0
0 0 0
0 0 0
0 0 0
0 0 0
0 0 0
0 0 0
0 0 0
0 0 0
0 0 0
0 0 0
0 0 0
0 0 0
0 0 0
0 0 0
0 0 0
0 0 0
0 0 0
0 0 0
0 0 0
0 0 0
0 0 0
38 0 0
38 0 0
38 0 0
38 0 0
38 0 0
38 0 0
38 0 0
40 0 0
43 0 0
47 0 0
50 0 0
53 0 0
56 0 0
59 0 0
62 0 0
65 0 0
68 0 0
70 0 0
73 0 0
76 0 0
80 1 1
84 3 3
89 6 6
96 10 10
104 16 16
114 23 23
125 32 32
137 42 42
149 52 52
160 61 61
170 69 69
177 74 74
180 76 76
180 73 73
175 67 67
167 57 57
156 45 45
144 31 31
132 19 19
123 9 9
117 2 2
114 0 0
113 0 0
0 38 0
0 38 0
0 38 0
0 38 0
0 38 0
0 38 0
0 45 0
0 55 0
3 68 3
18 91 18
45 127 45
71 162 71
66 165 66
23 131 23
0 0 0
0 0 0
0 0 0
0 0 0
0 0 0
0 0 0
0 0 0
0 0 0
0 0 0
0 0 0
0 0 0
0 0 0
0 0 0
0 0 0
0 0 0
0 0 0
0 0 0
0 0 0
0 0 0
0 0 0
0 0 0
0 0 0
0 0 0
38 0 0
38 0 0
38 0 0
38 0 0
38 0 0
38 0 0
38 0 0
40 0 0
43 0 0
47 0 0
50 0 0
53 0 0
56 0 0
59 0 0
62 0 0
65 0 0
68 0 0
70 0 0
73 0 0
76 0 0
79 1 1
84 3 3
89 6 6
95 10 10
103 16 16
113 23 23
124 31 31
135 41 41
147 50 50
158 59 59
168 67 67
174 72 72
178 73 73
177 71 71
173 65 65
165 55 55
154 43 43
142 30 30
131 18 18
122 8 8
117 2 2
114 0 0
112 0 0
0 38 0
0 38 0
0 38 0
0 38 0
0 38 0
0 38 0
0 45 0
0 55 0
3 67 3
15 88 15
38 120 38
58 149 58
51 150 51
14 121 14
0 0 0
0 0 0
0 0 0
0 0 0
0 0 0
0 0 0
0 0 0
0 0 0
0 0 0
0 0 0
0 0 0
0 0 0
0 0 0
0 0 0
0 0 0
0 0 0
0 0 0
0 0 0
0 0 0
0 0 0
0 0 0
0 0 0
0 0 0
38 0 0
38 0 0
38 0 0
38 0 0
38 0 0
38 0 0
38 0 0
39 0 0
43 0 0
46 0 0
50 0 0
53 0 0
56 0 0
59 0 0
62 0 0
65 0 0
67 0 0
70 0 0
73 0 0
76 0 0
79 1 1
83 3 3
88 5 5
95 9 9
102 14 14
111 21 21
122 29 29
133 38 38
144 47 47
154 56 56
163 63 63
170 67 67
173 69 69
173 66 66
168 60 60
160 51 51
150 39 39
139 27 27
129 16 16
121 7 7
116 2 2
114 0 0
112 0 0
0 38 0
0 38 0
0 38 0
0 38 0
0 38 0
0 38 0
0 45 0
0 54 0
2 65 2
10 83 10
26 107 26
38 128 38
27 126 27
3 110 3
0 0 0
0 0 0
0 0 0
0 0 0
0 0 0
0 0 0
0 0 0
0 0 0
0 0 0
0 0 0
0 0 0
0 0 0
0 0 0
0 0 0
0 0 0
0 0 0
0 0 0
0 0 0
0 0 0
0 0 0
0 0 0
0 0 0
0 0 0
38 0 0
38 0 0
38 0 0
38 0 0
38 0 0
38 0 0
38 0 0
39 0 0
43 0 0
46 0 0
49 0 0
53 0 0
56 0 0
59 0 0
62 0 0
64 0 0
67 0 0
70 0 0
73 0 0
75 0 0
79 1 1
83 2 2
87 5 5
93 8 8
100 13 13
109 19 19
119 27 27
129 35 35
139 43 43
149 51 51
157 57 57
163 61 61
166 62 62
166 60 60
162 54 54
154 45 45
145 34 34
135 23 23
126 13 13
119 5 5
115 1 1
113 0 0
111 0 0
0 38 0
0 38 0
0 38 0
0 38 0
0 38 0
0 38 0
0 44 0
0 53 0
1 64 1
5 77 5
14 94 14
17 106 17
8 106 8
0 105 0
0 0 0
0 0 0
0 0 0
0 0 0
0 0 0
0 0 0
0 0 0
0 0 0
0 0 0
0 0 0
0 0 0
0 0 0
0 0 0
0 0 0
0 0 0
0 0 0
0 0 0
0 0 0
0 0 0
0 0 0
0 0 0
0 0 0
0 0 0
0 0 0
38 0 0
38 0 0
38 0 0
38 0 0
38 0 0
38 0 0
39 0 0
42 0 0
46 0 0
49 0 0
52 0 0
55 0 0
58 0 0
61 0 0
64 0 0
67 0 0
70 0 0
72 0 0
75 0 0
78 0 0
82 2 2
86 4 4
92 7 7
98 11 11
106 17 17
115 23 23
124 30 30
134 38 38
143 45 45
150 50 50
155 54 54
158 54 54
157 52 52
154 46 46
147 38 38
139 29 29
130 19 19
122 10 10
117 4 4
114 0 0
112 0 0
110 0 0
0 0 0
0 38 0
0 38 0
0 38 0
0 38 0
0 38 0
0 43 0
0 52 0
0 62 0
2 73 2
4 84 4
3 92 3
0 96 0
0 0 0
0 0 0
0 0 0
0 0 0
0 0 0
0 0 0
0 0 0
0 0 0
0 0 0
0 0 0
0 0 0
0 0 0
0 0 0
0 0 0
0 0 0
0 0 0
0 0 0
0 0 0
0 0 0
0 0 0
0 0 0
0 0 0
0 0 0
0 0 0
0 0 0
38 0 0
38 0 0
38 0 0
38 0 0
38 0 0
38 0 0
38 0 0
42 0 0
45 0 0
49 0 0
52 0 0
55 0 0
58 0 0
61 0 0
64 0 0
66 0 0
69 0 0
72 0 0
75 0 0
78 0 0
81 1 1
85 3 3
90 6 6
96 9 9
103 14 14
111 20 20
119 26 26
128 32 32
135 38 38
142 42 42
147 45 45
149 45 45
148 43 43
145 38 38
139 31 31
132 22 22
125 14 14
119 7 7
114 2 2
112 0 0
111 0 0
108 0 0
0 0 0
0 0 0
0 38 0
0 38 0
0 38 0
0 38 0
0 41 0
0 51 0
0 60 0
0 69 0
0 78 0
0 86 0
0 0 0
0 0 0
0 0 0
0 0 0
0 0 0
0 0 0
0 0 0
0 0 0
0 0 0
0 0 0
0 0 0
0 0 0
0 0 0
0 0 0
0 0 0
0 0 0
0 0 0
0 0 0
0 0 0
0 0 0
0 0 0
0 0 0
0 0 0
0 0 0
0 0 0
0 0 0
38 0 0
38 0 0
38 0 0
38 0 0
38 0 0
38 0 0
38 0 0
41 0 0
45 0 0
48 0 0
51 0 0
54 0 0
57 0 0
60 0 0
63 0 0
66 0 0
69 0 0
71 0 0
74 0 0
77 0 0
80 1 1
84 2 2
88 4 4
94 7 7
100 11 11
107 16 16
114 21 21
121 26 26
128 31 31
133 34 34
137 36 36
139 36 36
139 34 34
136 30 30
131 23 23
125 16 16
120 10 10
115 4 4
112 1 1
111 0 0
109 0 0
105 0 0
0 0 0
0 0 0
0 0 0
0 0 0
0 38 0
0 38 0
0 39 0
0 48 0
0 58 0
0 66 0
0 0 0
0 0 0
0 0 0
0 0 0
0 0 0
0 0 0
0 0 0
0 0 0
0 0 0
0 0 0
0 0 0
0 0 0
0 0 0
0 0 0
0 0 0
0 0 0
0 0 0
0 0 0
0 0 0
0 0 0
0 0 0
0 0 0
0 0 0
0 0 0
0 0 0
0 0 0
0 0 0
0 0 0
38 0 0
38 0 0
38 0 0
38 0 0
38 0 0
38 0 0
38 0 0
40 0 0
44 0 0
47 0 0
51 0 0
54 0 0
57 0 0
60 0 0
63 0 0
65 0 0
68 0 0
71 0 0
73 0 0
76 0 0
79 0 0
83 1 1
86 3 3
91 5 5
96 8 8
102 12 12
108 16 16
115 20 20
120 24 24
125 27 27
128 28 28
130 28 28
129 25 25
127 22 22
123 17 17
119 11 11
115 6 6
112 2 2
110 0 0
109 0 0
107 0 0
100 0 0
0 0 0
0 0 0
0 0 0
0 0 0
0 0 0
0 0 0
0 0 0
0 0 0
0 0 0
0 0 0
0 0 0
0 0 0
0 0 0
0 0 0
0 0 0
0 0 0
0 0 0
0 0 0
0 0 0
0 0 0
0 0 0
0 0 0
0 0 0
0 0 0
0 0 0
0 0 0
0 0 0
0 0 0
0 0 0
0 0 0
0 0 0
0 0 0
0 0 0
0 0 0
0 0 0
0 0 0
0 0 0
0 0 0
0 0 0
38 0 0
38 0 0
38 0 0
38 0 0
38 0 0
38 0 0
39 0 0
43 0 0
47 0 0
50 0 0
53 0 0
56 0 0
59 0 0
62 0 0
65 0 0
67 0 0
70 0 0
73 0 0
75 0 0
78 0 0
81 1 1
85 2 2
89 4 4
93 6 6
98 9 9
103 12 12
109 15 15
113 17 17
117 19 19
120 20 20
121 20 20
121 18 18
119 15 15
117 11 11
114 7 7
111 3 3
109 1 1
108 0 0
107 0 0
105 0 0
0 0 0
0 0 0
0 0 0
0 0 0
0 0 0
0 0 0
0 0 0
0 0 0
0 0 0
0 0 0
0 0 0
0 0 0
0 0 0
0 0 0
0 0 0
0 0 0
0 0 0
0 0 0
0 0 0
0 0 0
0 0 0
0 0 0
0 0 0
0 0 0
0 0 0
0 0 0
0 0 0
0 0 0
0 0 0
0 0 0
0 0 0
0 0 0
0 0 0
0 0 0
0 0 0
0 0 0
0 0 0
0 0 0
0 0 0
0 0 0
38 0 0
38 0 0
38 0 0
38 0 0
38 0 0
38 0 0
38 0 0
42 0 0
46 0 0
49 0 0
52 0 0
55 0 0
58 0 0
61 0 0
64 0 0
67 0 0
69 0 0
72 0 0
74 0 0
77 0 0
80 0 0
83 1 1
87 2 2
90 4 4
95 6 6
99 8 8
103 10 10
107 12 12
110 13 13
112 14 14
113 13 13
113 11 11
113 9 9
111 6 6
109 3 3
108 1 1
107 0 0
107 0 0
105 0 0
101 0 0
0 0 0
0 0 0
0 0 0
0 0 0
0 0 0
0 0 0
0 0 0
0 0 0
0 0 0
0 0 0
0 0 0
0 0 0
0 0 0
0 0 0
0 0 0
0 0 0
0 0 0
0 0 0
0 0 0
0 0 0
0 0 0
0 0 0
0 0 0
0 0 0
0 0 0
0 0 0
0 0 0
0 0 0
0 0 0
0 0 0
0 0 0
0 0 0
0 0 0
0 0 0
0 0 0
0 0 0
0 0 0
0 0 0
0 0 0
0 0 0
0 0 0
38 0 0
38 0 0
38 0 0
38 0 0
38 0 0
38 0 0
41 0 0
45 0 0
48 0 0
51 0 0
54 0 0
57 0 0
60 0 0
63 0 0
66 0 0
68 0 0
71 0 0
74 0 0
76 0 0
79 0 0
82 0 0
85 1 1
88 2 2
91 3 3
95 5 5
98 6 6
102 7 7
104 8 8
106 8 8
107 8 8
107 6 6
107 5 5
106 3 3
106 1 1
105 0 0
105 0 0
104 0 0
102 0 0
0 0 0
0 0 0
0 0 0
0 0 0
0 0 0
0 0 0
0 0 0
0 0 0
0 0 0
0 0 0
0 0 0
0 0 0
0 0 0
0 0 0
0 0 0
0 0 0
0 0 0
0 0 0
0 0 0
0 0 0
0 0 0
0 0 0
0 0 0
0 0 0
0 0 0
0 0 0
0 0 0
0 0 0
0 0 0
0 0 0
0 0 0
0 0 0
0 0 0
0 0 0
0 0 0
0 0 0
0 0 0
0 0 0
0 0 0
0 0 0
0 0 0
0 0 0
38 0 0
38 0 0
38 0 0
38 0 0
38 0 0
38 0 0
40 0 0
43 0 0
47 0 0
50 0 0
53 0 0
56 0 0
59 0 0
62 0 0
65 0 0
67 0 0
70 0 0
73 0 0
75 0 0
78 0 0
80 0 0
83 0 0
86 1 1
89 2 2
92 3 3
95 3 3
97 4 4
99 4 4
101 4 4
102 4 4
103 3 3
103 2 2
103 1 1
103 0 0
103 0 0
103 0 0
102 0 0
97 0 0
0 0 0
0 0 0
0 0 0
0 0 0
0 0 0
0 0 0
0 0 0
0 0 0
0 0 0
0 0 0
0 0 0
0 0 0
0 0 0
0 0 0
0 0 0
0 0 0
0 0 0
0 0 0
0 0 0
0 0 0
0 0 0
0 0 0
0 0 0
0 0 0
0 0 0
0 0 0
0 0 0
0 0 0
0 0 0
0 0 0
0 0 0
0 0 0
0 0 0
0 0 0
0 0 0
0 0 0
0 0 0
0 0 0
0 0 0
0 0 0
0 0 0
0 0 0
0 0 0
38 0 0
38 0 0
38 0 0
38 0 0
38 0 0
38 0 0
42 0 0
45 0 0
49 0 0
52 0 0
55 0 0
58 0 0
61 0 0
64 0 0
66 0 0
69 0 0
71 0 0
74 0 0
76 0 0
79 0 0
81 0 0
84 0 0
86 1 1
89 1 1
91 2 2
94 2 2
96 2 2
97 2 2
98 2 2
99 1 1
100 0 0
100 0 0
101 0 0
101 0 0
100 0 0
98 0 0
0 0 0
0 0 0
0 0 0
0 0 0
0 0 0
0 0 0
0 0 0
0 0 0
0 0 0
0 0 0
0 0 0
0 0 0
0 0 0
0 0 0
0 0 0
0 0 0
0 0 0
0 0 0
0 0 0
0 0 0
0 0 0
0 0 0
0 0 0
0 0 0
0 0 0
0 0 0
0 0 0
0 0 0
0 0 0
0 0 0
0 0 0
0 0 0
0 0 0
0 0 0
0 0 0
0 0 0
0 0 0
0 0 0
0 0 0
0 0 0
0 0 0
0 0 0
0 0 0
0 0 0
38 0 0
38 0 0
38 0 0
38 0 0
38 0 0
38 0 0
40 0 0
44 0 0
47 0 0
50 0 0
54 0 0
57 0 0
60 0 0
62 0 0
65 0 0
68 0 0
70 0 0
73 0 0
75 0 0
78 0 0
80 0 0
82 0 0
85 0 0
87 0 0
89 0 0
91 0 0
93 1 1
94 0 0
96 0 0
97 0 0
97 0 0
98 0 0
98 0 0
98 0 0
96 0 0
89 0 0
0 0 0
0 0 0
0 0 0
0 0 0
0 0 0
0 0 0
0 0 0
0 0 0
0 0 0
0 0 0
0 0 0
0 0 0
0 0 0
0 0 0
0 0 0
0 0 0
0 0 0
0 0 0
0 0 0
0 0 0
0 0 0
0 0 0
0 0 0
0 0 0
0 0 0
0 0 0
0 0 0
0 0 0
0 0 0
0 0 0
0 0 0
0 0 0
0 0 0
0 0 0
0 0 0
0 0 0
0 0 0
0 0 0
0 0 0
0 0 0
0 0 0
0 0 0
0 0 0
0 0 0
0 0 0
38 0 0
38 0 0
38 0 0
38 0 0
38 0 0
38 0 0
42 0 0
45 0 0
49 0 0
52 0 0
55 0 0
58 0 0
61 0 0
64 0 0
66 0 0
69 0 0
71 0 0
74 0 0
76 0 0
78 0 0
81 0 0
83 0 0
85 0 0
87 0 0
89 0 0
90 0 0
92 0 0
93 0 0
94 0 0
95 0 0
96 0 0
95 0 0
94 0 0
90 0 0
0 0 0
0 0 0
0 0 0
0 0 0
0 0 0
0 0 0
0 0 0
0 0 0
0 0 0
0 0 0
0 0 0
0 0 0
0 0 0
0 0 0
0 0 0
0 0 0
0 0 0
0 0 0
0 0 0
0 0 0
0 0 0
0 0 0
0 0 0
0 0 0
0 0 0
0 0 0
0 0 0
0 0 0
0 0 0
0 0 0
0 0 0
0 0 0
0 0 0
0 0 0
0 0 0
0 0 0
0 0 0
0 0 0
0 0 0
0 0 0
0 0 0
0 0 0
0 0 0
0 0 0
0 0 0
0 0 0
0 0 0
38 0 0
38 0 0
38 0 0
38 0 0
38 0 0
40 0 0
43 0 0
47 0 0
50 0 0
53 0 0
56 0 0
59 0 0
62 0 0
65 0 0
67 0 0
70 0 0
72 0 0
75 0 0
77 0 0
79 0 0
81 0 0
83 0 0
85 0 0
87 0 0
88 0 0
90 0 0
91 0 0
92 0 0
92 0 0
93 0 0
92 0 0
89 0 0
0 0 0
0 0 0
0 0 0
0 0 0
0 0 0
0 0 0
0 0 0
0 0 0
0 0 0
0 0 0
0 0 0
0 0 0
0 0 0
0 0 0
0 0 0
0 0 0
0 0 0
0 0 0
0 0 0
0 0 0
0 0 0
0 0 0
0 0 0
0 0 0
0 0 0
0 0 0
0 0 0
0 0 0
0 0 0
0 0 0
0 0 0
0 0 0
0 0 0
0 0 0
0 0 0
0 0 0
0 0 0
0 0 0
0 0 0
0 0 0
0 0 0
0 0 0
0 0 0
0 0 0
0 0 0
0 0 0
0 0 0
0 0 0
0 0 0
38 0 0
38 0 0
38 0 0
38 0 0
38 0 0
41 0 0
45 0 0
48 0 0
51 0 0
54 0 0
57 0 0
60 0 0
63 0 0
65 0 0
68 0 0
70 0 0
73 0 0
75 0 0
77 0 0
79 0 0
81 0 0
83 0 0
84 0 0
86 0 0
87 0 0
88 0 0
89 0 0
89 0 0
88 0 0
86 0 0
0 0 0
0 0 0
0 0 0
0 0 0
0 0 0
0 0 0
0 0 0
0 0 0
0 0 0
0 0 0
0 0 0
0 0 0
0 0 0
0 0 0
0 0 0
0 0 0
0 0 0
0 0 0
0 0 0
0 0 0
0 0 0
0 0 0
0 0 0
0 0 0
0 0 0
0 0 0
0 0 0
0 0 0
0 0 0
0 0 0
0 0 0
0 0 0
0 0 0
0 0 0
0 0 0
0 0 0
0 0 0
0 0 0
0 0 0
0 0 0
0 0 0
0 0 0
0 0 0
0 0 0
0 0 0
0 0 0
0 0 0
0 0 0
0 0 0
0 0 0
0 0 0
38 0 0
38 0 0
38 0 0
38 0 0
38 0 0
42 0 0
46 0 0
49 0 0
52 0 0
55 0 0
58 0 0
61 0 0
63 0 0
66 0 0
68 0 0
71 0 0
73 0 0
75 0 0
77 0 0
79 0 0
80 0 0
82 0 0
83 0 0
84 0 0
85 0 0
85 0 0
85 0 0
82 0 0
0 0 0
0 0 0
0 0 0
0 0 0
0 0 0
0 0 0
0 0 0
0 0 0
0 0 0
0 0 0
0 0 0
0 0 0
0 0 0
0 0 0
0 0 0
0 0 0
0 0 0
0 0 0
0 0 0
0 0 0
0 0 0
0 0 0
0 0 0
0 0 0
0 0 0
0 0 0
0 0 0
0 0 0
0 0 0
0 0 0
0 0 0
0 0 0
0 0 0
0 0 0
0 0 0
0 0 0
0 0 0
0 0 0
0 0 0
0 0 0
0 0 0
0 0 0
0 0 0
0 0 0
0 0 0
0 0 0
0 0 0
0 0 0
0 0 0
0 0 0
0 0 0
0 0 0
0 0 0
38 0 0
38 0 0
38 0 0
38 0 0
39 0 0
43 0 0
46 0 0
50 0 0
53 0 0
56 0 0
58 0 0
61 0 0
64 0 0
66 0 0
68 0 0
70 0 0
72 0 0
74 0 0
76 0 0
78 0 0
79 0 0
80 0 0
81 0 0
81 0 0
80 0 0
76 0 0
0 0 0
0 0 0
0 0 0
0 0 0
0 0 0
0 0 0
0 0 0
0 0 0
0 0 0
0 0 0
0 0 0
0 0 0
0 0 0
0 0 0
0 0 0
0 0 0
0 0 0
0 0 0
0 0 0
0 0 0
0 0 0
0 0 0
0 0 0
0 0 0
0 0 0
0 0 0
0 0 0
0 0 0
0 0 0
0 0 0
0 0 0
0 0 0
0 0 0
0 0 0
0 0 0
0 0 0
0 0 0
0 0 0
0 0 0
0 0 0
0 0 0
0 0 0
0 0 0
0 0 0
0 0 0
0 0 0
0 0 0
0 0 0
0 0 0
0 0 0
0 0 0
0 0 0
0 0 0
0 0 0
0 0 0
0 0 0
38 0 0
38 0 0
38 0 0
39 0 0
43 0 0
46 0 0
49 0 0
53 0 0
55 0 0
58 0 0
61 0 0
63 0 0
65 0 0
67 0 0
69 0 0
71 0 0
73 0 0
74 0 0
75 0 0
76 0 0
76 0 0
74 0 0
0 0 0
0 0 0
0 0 0
0 0 0
0 0 0
0 0 0
0 0 0
0 0 0
0 0 0
0 0 0
0 0 0
0 0 0
0 0 0
0 0 0
0 0 0
0 0 0
0 0 0
0 0 0
0 0 0
0 0 0
0 0 0
0 0 0
0 0 0
0 0 0
0 0 0
0 0 0
0 0 0
0 0 0
0 0 0
0 0 0
0 0 0
0 0 0
0 0 0
0 0 0
0 0 0
0 0 0
0 0 0
0 0 0
0 0 0
0 0 0
0 0 0
0 0 0
0 0 0
0 0 0
0 0 0
0 0 0
0 0 0
0 0 0
0 0 0
0 0 0
0 0 0
0 0 0
0 0 0
0 0 0
0 0 0
0 0 0
0 0 0
0 0 0
0 0 0
0 0 0
38 0 0
38 0 0
38 0 0
42 0 0
45 0 0
49 0 0
52 0 0
55 0 0
57 0 0
60 0 0
62 0 0
64 0 0
66 0 0
67 0 0
69 0 0
69 0 0
70 0 0
69 0 0
0 0 0
0 0 0
0 0 0
0 0 0
0 0 0
0 0 0
0 0 0
0 0 0
0 0 0
0 0 0
0 0 0
0 0 0
0 0 0
0 0 0
0 0 0
0 0 0
0 0 0
0 0 0
0 0 0
0 0 0
0 0 0
0 0 0
0 0 0
0 0 0
0 0 0
0 0 0
0 0 0
0 0 0
0 0 0
0 0 0
0 0 0
0 0 0
0 0 0
0 0 0
0 0 0
0 0 0
0 0 0
0 0 0
0 0 0
0 0 0
0 0 0
0 0 0
0 0 0
0 0 0
0 0 0
0 0 0
0 0 0
0 0 0
0 0 0
0 0 0
0 0 0
0 0 0
0 0 0
0 0 0
0 0 0
0 0 0
0 0 0
0 0 0
0 0 0
0 0 0
0 0 0
0 0 0
0 0 0
0 0 0
38 0 0
38 0 0
40 0 0
43 0 0
47 0 0
50 0 0
52 0 0
55 0 0
57 0 0
59 0 0
60 0 0
61 0 0
62 0 0
61 0 0
0 0 0
0 0 0
0 0 0
0 0 0
0 0 0
0 0 0
0 0 0
0 0 0
0 0 0
0 0 0
0 0 0
0 0 0
0 0 0
0 0 0
0 0 0
0 0 0
0 0 0
0 0 0
0 0 0
0 0 0
0 0 0
0 0 0
0 0 0
0 0 0
0 0 0
0 0 0
0 0 0
0 0 0
0 0 0
0 0 0
0 0 0
0 0 0
0 0 0
0 0 0
0 0 0
0 0 0
0 0 0
0 0 0
0 0 0
0 0 0
0 0 0
0 0 0
0 0 0
0 0 0
0 0 0
0 0 0
0 0 0
0 0 0
0 0 0
0 0 0
0 0 0
0 0 0
0 0 0
0 0 0
0 0 0
0 0 0
0 0 0
0 0 0
0 0 0
0 0 0
0 0 0
0 0 0
0 0 0
0 0 0
0 0 0
0 0 0
0 0 0
0 0 0
0 0 0
0 0 0
38 0 0
41 0 0
44 0 0
47 0 0
48 0 0
49 0 0
0 0 0
0 0 0
0 0 0
0 0 0
0 0 0
0 0 0
0 0 0
0 0 0
0 0 0
0 0 0
0 0 0
0 0 0
0 0 0
0 0 0
0 0 0
0 0 0
0 0 0
0 0 0
0 0 0
0 0 0
0 0 0
0 0 0
0 0 0
0 0 0
0 0 0
0 0 0
0 0 0
0 0 0
0 0 0
0 0 0
0 0 0
0 0 0
0 0 0
0 0 0
0 0 0
0 0 0
0 0 0
0 0 0
0 0 0
0 0 0
0 0 0
0 0 0
0 0 0
0 0 0
0 0 0
0 0 0
0 0 0
0 0 0
0 0 0
0 0 0
0 0 0
0 0 0
0 0 0
0 0 0
0 0 0
0 0 0
0 0 0
0 0 0
0 0 0
0 0 0
0 0 0
0 0 0
0 0 0
0 0 0
0 0 0
0 0 0
0 0 0
0 0 0
0 0 0
0 0 0
0 0 0
0 0 0
0 0 0
0 0 0
0 0 0
0 0 0
0 0 0
0 0 0
0 0 0
0 0 0
0 0 0
0 0 0
0 0 0
0 0 0
0 0 0
0 0 0
0 0 0
0 0 0
0 0 0
0 0 0
0 0 0
0 0 0
0 0 0
0 0 0
0 0 0
0 0 0
0 0 0
0 0 0
0 0 0
0 0 0
0 0 0
0 0 0
0 0 0
0 0 0
0 0 0
0 0 0
0 0 0
0 0 0
0 0 0
0 0 0
0 0 0
0 0 0
0 0 0
0 0 0
0 0 0
0 0 0
0 0 0
0 0 0
0 0 0
0 0 0
0 0 0
0 0 0
0 0 0
0 0 0
0 0 0
0 0 0
0 0 0
0 0 0
0 0 0
0 0 0
0 0 0
0 0 0
0 0 0
0 0 0
0 0 0
0 0 0
0 0 0
0 0 0
0 0 0
0 0 0
0 0 0
0 0 0
0 0 0
0 0 0
0 0 0
0 0 0
0 0 0
0 0 0
0 0 0
0 0 0
0 0 0
0 0 0
0 0 0
0 0 0
0 0 0
0 0 0
0 0 0
0 0 0
0 0 0
0 0 0
0 0 0
0 0 0
0 0 0
0 0 0
0 0 0
0 0 0
0 0 0
0 0 0
0 0 0
0 0 0
0 0 0
0 0 0
0 0 0
0 0 0
0 0 0
0 0 0
0 0 0
0 0 0
0 0 0
0 0 0
0 0 0
0 0 0
0 0 0
0 0 0
0 0 0
0 0 0
0 0 0
0 0 0
0 0 0
0 0 0
0 0 0
0 0 0
0 0 0
0 0 0
0 0 0
0 0 0
0 0 0
0 0 0
0 0 0
0 0 0
0 0 0
0 0 0
0 0 0
0 0 0
0 0 0
0 0 0
0 0 0
0 0 0
0 0 0
0 0 0
0 0 0
0 0 0
0 0 0
0 0 0
0 0 0
0 0 0
0 0 0
0 0 0
0 0 0
0 0 0
0 0 0
0 0 0
0 0 0
0 0 0
0 0 0
0 0 0
0 0 0
0 0 0
0 0 0
0 0 0
0 0 0
0 0 0
0 0 0
0 0 0
0 0 0
0 0 0
0 0 0
0 0 0
0 0 0
0 0 0
0 0 0
0 0 0
0 0 0
0 0 0
0 0 0
0 0 0
0 0 0
0 0 0
0 0 0
0 0 0
0 0 0
0 0 0
0 0 0
0 0 0
0 0 0
0 0 0
0 0 0
0 0 0
0 0 0
0 0 0
0 0 0
0 0 0
0 0 0
0 0 0
0 0 0
0 0 0
0 0 0
0 0 0
0 0 0
0 0 0
0 0 0
0 0 0
0 0 0
0 0 0
0 0 0
0 0 0
0 0 0
0 0 0
0 0 0
0 0 0
0 0 0
0 0 0
0 0 0
0 0 0
0 0 0
0 0 0
0 0 0
0 0 0
0 0 0
0 0 0
0 0 0
0 0 0
0 0 0
0 0 0
0 0 0
0 0 0
0 0 0
0 0 0
0 0 0
0 0 0
0 0 0
0 0 0
0 0 0
0 0 0
0 0 0
0 0 0
0 0 0
0 0 0
0 0 0
0 0 0
0 0 0
0 0 0
0 0 0
0 0 0
0 0 0
0 0 0
0 0 0
0 0 0
0 0 0
0 0 0
0 0 0
0 0 0
0 0 0
0 0 0
0 0 0
0 0 0
0 0 0
0 0 0
0 0 0
0 0 0
0 0 0
0 0 0
0 0 0
0 0 0
0 0 0
0 0 0
0 0 0
0 0 0
0 0 0
0 0 0
0 0 0
0 0 0
0 0 0
0 0 0
0 0 0
0 0 0
0 0 0
0 0 0
0 0 0
0 0 0
0 0 0
0 0 0
0 0 0
0 0 0
0 0 0
0 0 0
0 0 0
0 0 0
0 0 0
0 0 0
0 0 0
0 0 0
0 0 0
0 0 0
0 0 0
0 0 0
0 0 0
0 0 0
0 0 0
0 0 0
0 0 0
0 0 0
0 0 0
0 0 0
0 0 0
0 0 0
0 0 0
0 0 0
0 0 0
0 0 0
0 0 0
0 0 0
0 0 0
0 0 0
0 0 0
0 0 0
0 0 0
0 0 0
0 0 0
0 0 0
0 0 0
0 0 0
0 0 0
0 0 0
0 0 0
0 0 0
0 0 0
0 0 0
0 0 0
0 0 0
0 0 0
0 0 0
0 0 0
0 0 0
0 0 0
0 0 0
0 0 0
0 0 0
0 0 0
0 0 0
0 0 0
0 0 0
0 0 0
0 0 0
0 0 0
0 0 0
0 0 0
0 0 0
0 0 0
0 0 0
0 0 0
0 0 0
0 0 0
0 0 0
0 0 0
0 0 0
0 0 0
0 0 0
0 0 0
0 0 0
0 0 0
0 0 0
0 0 0
0 0 0
0 0 0
0 0 0
0 0 0
0 0 0
0 0 0
0 0 0
0 0 0
0 0 0
0 0 0
0 0 0
0 0 0
0 0 0
0 0 0
0 0 0
0 0 0
0 0 0
0 0 0
0 0 0
0 0 0
0 0 0
0 0 0
0 0 0
0 0 0
0 0 0
0 0 0
0 0 0
0 0 0
0 0 0
0 0 0
0 0 0
0 0 0
0 0 0
0 0 0
0 0 0
0 0 0
0 0 0
0 0 0
0 0 0
0 0 0
0 0 0
0 0 0
0 0 0
0 0 0
0 0 0
0 0 0
0 0 0
0 0 0
0 0 0
0 0 0
0 0 0
0 0 0
0 0 0
0 0 0
0 0 0
0 0 0
0 0 0
0 0 0
0 0 0
0 0 0
0 0 0
0 0 0
0 0 0
0 0 0
0 0 0
0 0 0
0 0 0
0 0 0
0 0 0
0 0 0
0 0 0
0 0 0
0 0 0
0 0 0
0 0 0
0 0 0
0 0 0
0 0 0
0 0 0
0 0 0
0 0 0
0 0 0
0 0 0
0 0 0
0 0 0
0 0 0
0 0 0
0 0 0
0 0 0
0 0 0
0 0 0
0 0 0
0 0 0
0 0 0
0 0 0
0 0 0
0 0 0
0 0 0
0 0 0
0 0 0
0 0 0
0 0 0
0 0 0
0 0 0
0 0 0
0 0 0
0 0 0
0 0 0
0 0 0
0 0 0
0 0 0
0 0 0
0 0 0
0 0 0
0 0 0
0 0 0
0 0 0
0 0 0
0 0 0
0 0 0
0 0 0
0 0 0
0 0 0
0 0 0
0 0 0
0 0 0
0 0 0
0 0 0
0 0 0
0 0 0
0 0 0
0 0 0
0 0 0
0 0 0
0 0 0
0 0 0
0 0 0
0 0 0
0 0 0
0 0 0
0 0 0
0 0 0
0 0 0
0 0 0
0 0 0
0 0 0
0 0 0
0 0 0
0 0 0
0 0 0
0 0 0
0 0 0
0 0 0
0 0 0
0 0 0
0 0 0
0 0 0
0 0 0
0 0 0
0 0 0
0 0 0
0 0 0
0 0 0
0 0 0
